HIERARCHY
ROOT Hips
{
	OFFSET 0.000000 0.000000 0.000000
	CHANNELS 6 Xposition Yposition Zposition Zrotation Yrotation Xrotation 
	JOINT LHipJoint
	{
		OFFSET 0.000000 0.000000 0.000000
		CHANNELS 3 Zrotation Yrotation Xrotation
		JOINT LeftUpLeg
		{
			OFFSET 1.363060 -1.794630 0.839290
			CHANNELS 3 Zrotation Yrotation Xrotation
			JOINT LeftLeg
			{
				OFFSET 2.448110 -6.726130 0.000000
				CHANNELS 3 Zrotation Yrotation Xrotation
				JOINT LeftFoot
				{
					OFFSET 2.562200 -7.039590 0.000000
					CHANNELS 3 Zrotation Yrotation Xrotation
					JOINT LeftToeBase
					{
						OFFSET 0.157640 -0.433110 2.322550
						CHANNELS 3 Zrotation Yrotation Xrotation
						End Site
						{
							OFFSET 0.000000 0.000000 0.000000
						}
					}
				}
			}
		}
	}
	JOINT RHipJoint
	{
		OFFSET 0.000000 0.000000 0.000000
		CHANNELS 3 Zrotation Yrotation Xrotation
		JOINT RightUpLeg
		{
			OFFSET -1.305520 -1.794630 0.839290
			CHANNELS 3 Zrotation Yrotation Xrotation
			JOINT RightLeg
			{
				OFFSET -2.542530 -6.985550 0.000000
				CHANNELS 3 Zrotation Yrotation Xrotation
				JOINT RightFoot
				{
					OFFSET -2.568260 -7.056230 0.000000
					CHANNELS 3 Zrotation Yrotation Xrotation
					JOINT RightToeBase
					{
						OFFSET -0.164730 -0.452590 2.363150
						CHANNELS 3 Zrotation Yrotation Xrotation
						End Site
						{
							OFFSET 0.000000 0.000000 0.000000
						}
					}
				}
			}
		}
	}
}
MOTION
Frames: 28
Frame Time: 0.008333
1.417135 16.696805 -0.513545 8.696624 85.757026 8.754348 -10.468194 2.428559 0.720737 -12.293517 6.524992 -7.465108 -1.963514 0.824280 30.516447 2.537587 11.083019 -23.012034 -3.555900 0.000000 -24.152600 10.467958 -0.992494 -0.914247 5.445978 -10.995781 -32.007079 0.112022 -4.025024 59.616130 -2.082469 -9.370040 -15.399296 1.186600 -0.000000 -12.252800
1.667869 16.702167 -0.490373 7.781551 86.156030 7.962976 -10.476840 2.506874 0.755218 -11.971715 6.519153 -6.075764 -1.957048 0.751059 29.402069 2.522132 11.020875 -22.833982 -3.503600 0.000000 -25.330199 10.274014 -0.816941 -0.786821 6.239417 -11.059129 -33.544261 0.358781 -3.869442 57.174020 -2.144921 -9.331792 -15.617573 1.208600 -0.000000 -12.531100
1.920249 16.706869 -0.465799 6.747780 86.530123 7.057814 -10.489170 2.593176 0.778758 -11.627942 6.611309 -4.694330 -1.950790 0.677317 28.234685 2.494622 10.917679 -22.574193 -3.422700 -0.000000 -26.779000 10.069903 -0.664230 -0.643134 7.037238 -11.107149 -34.927629 0.619989 -3.691594 54.425726 -2.198225 -9.222265 -15.712608 1.198000 0.000000 -13.258200
2.174194 16.710655 -0.439372 5.694029 86.882640 6.126821 -10.503961 2.687923 0.786985 -11.261306 6.802898 -3.305979 -1.944935 0.605084 27.021468 2.453439 10.766963 -22.225831 -3.311000 0.000000 -28.478500 9.861070 -0.535471 -0.486087 7.828625 -11.141707 -36.132866 0.895372 -3.489108 51.382754 -2.236228 -9.021718 -15.687997 1.153600 -0.000000 -14.447700
2.429663 16.713308 -0.410733 4.729486 87.221520 5.270438 -10.519974 2.791020 0.776772 -10.870201 7.084271 -1.898108 -1.939091 0.537105 25.773271 2.397021 10.564125 -21.775536 -3.165800 0.000000 -30.393500 9.653005 -0.429473 -0.319595 8.602420 -11.168644 -37.140522 1.184227 -3.258404 48.060033 -2.254463 -8.724607 -15.546871 1.076900 -0.000000 -16.128901
2.686677 16.714738 -0.379599 3.960584 87.558601 4.589677 -10.536274 2.902024 0.746957 -10.451382 7.435619 -0.462757 -1.932146 0.476685 24.506119 2.324079 10.307326 -21.204211 -2.984300 -0.000001 -32.496200 9.450973 -0.343344 -0.147340 9.348682 -11.195844 -37.937330 1.484620 -2.994680 44.474071 -2.250400 -8.341069 -15.285231 0.971200 -0.000000 -18.377000
2.945222 16.714872 -0.345732 3.514573 87.908206 4.207480 -10.551988 3.020043 0.698575 -10.002445 7.829881 1.002614 -1.922488 0.427295 23.241972 2.234174 9.998213 -20.492563 -2.765500 0.000000 -34.735500 9.259981 -0.272964 0.028135 10.056653 -11.233024 -38.517503 1.793599 -2.692566 40.647511 -2.223686 -7.891709 -14.908318 0.842900 0.000000 -21.143300
3.205376 16.713790 -0.309030 3.551945 88.284935 4.282970 -10.566681 3.143710 0.633848 -9.520465 8.236350 2.492828 -1.908161 0.392575 22.008159 2.127699 9.641672 -19.621246 -2.510100 0.000000 -37.083300 9.084592 -0.213095 0.205268 10.715890 -11.287076 -38.880956 2.105613 -2.346699 36.607870 -2.176363 -7.408958 -14.419250 0.699001 -0.000000 -24.351200
3.467208 16.711700 -0.269436 4.422216 88.702864 5.166211 -10.579864 3.271109 0.555595 -9.003237 8.624278 3.996588 -1.887229 0.375944 20.835900 2.006193 9.245607 -18.574776 -2.221800 -0.000000 -39.524000 8.929112 -0.158078 0.383436 11.314068 -11.360756 -39.032307 2.411924 -1.953297 32.391856 -2.112993 -6.933090 -13.825998 0.547000 0.000000 -27.803700
3.730785 16.708864 -0.226991 7.395250 89.177073 8.127543 -10.589322 3.399552 0.465660 -8.450238 8.966652 5.499068 -1.858442 0.380361 19.758456 1.872369 8.819755 -17.342791 -1.906300 -0.000000 -42.075300 8.798381 -0.103514 0.562270 11.835432 -11.452526 -38.979216 2.698936 -1.512634 28.048929 -2.040648 -6.512208 -13.134604 0.392100 0.000000 -31.345601
3.996210 16.705589 -0.181751 24.069993 89.771746 24.769239 -10.554683 3.532727 0.356123 -7.859767 9.238278 6.985896 -1.825224 0.409458 18.807387 1.732274 8.376365 -15.926710 -1.572600 0.000000 -44.743700 8.712605 -0.046324 0.744985 12.256339 -11.566315 -38.736775 2.940496 -1.031239 23.648397 -1.967931 -6.194518 -12.373068 0.240100 -0.000000 -34.641900
4.263631 16.702230 -0.133700 153.731959 89.808836 154.358003 -10.582645 3.728783 0.292507 -7.225800 9.446677 8.401480 -1.752657 0.482126 17.964716 1.589171 7.975498 -14.326296 -1.230700 -0.000000 -47.545501 8.629906 0.135566 0.899341 12.614337 -11.617702 -38.271761 3.168980 -0.498554 19.371715 -1.884221 -5.942008 -11.546213 0.093000 0.000000 -37.530900
4.532879 16.699084 -0.083470 168.616696 89.187471 169.136126 -10.614553 3.825989 0.191151 -6.608549 9.545137 9.829577 -1.690882 0.553626 17.325139 1.443528 7.537809 -12.547726 -0.888001 0.000000 -50.567300 8.578302 0.198753 1.053847 12.791616 -11.722851 -37.691176 3.318217 0.004505 15.194756 -1.840704 -5.921099 -10.711543 -0.050800 0.000000 -39.946500
4.804310 16.696430 -0.030933 171.136221 88.536529 171.509233 -10.612493 3.951282 0.097584 -5.994593 9.540921 11.209717 -1.616162 0.657106 16.829963 1.310209 7.153745 -10.612363 -0.555200 0.000000 -53.740300 8.568823 0.308567 1.176412 12.847299 -11.853161 -37.002370 3.401149 0.484409 11.391534 -1.806117 -6.002231 -9.926736 -0.182500 -0.000000 -41.714600
5.077877 16.694567 0.022959 172.123766 87.876402 172.304264 -10.604210 4.078153 0.008171 -5.372675 9.457036 12.542767 -1.528779 0.784269 16.490862 1.188802 6.804769 -8.525252 -0.235300 0.000000 -57.177000 8.584593 0.429292 1.267337 12.787189 -11.967529 -36.209209 3.423467 0.914141 8.032689 -1.796700 -6.217373 -9.250944 -0.298500 -0.000000 -42.769999
5.353674 16.693690 0.077897 172.410959 87.220845 172.349955 -10.586936 4.206256 -0.071199 -4.771065 9.286545 13.837749 -1.430774 0.930574 16.283216 1.085191 6.507816 -6.301791 0.067500 -0.000000 -60.790699 8.621104 0.552994 1.313309 12.632888 -12.104717 -35.379943 3.399517 1.265460 5.282835 -1.807539 -6.499528 -8.759288 -0.386800 -0.000001 -43.189600
5.632048 16.693905 0.133109 172.577236 86.597289 172.239400 -10.567096 4.334021 -0.142528 -4.170538 9.067569 15.072484 -1.322857 1.091484 16.199911 0.998127 6.235887 -3.942638 0.351200 -0.000000 -64.634900 8.668140 0.667643 1.331530 12.398687 -12.183920 -34.511922 3.338047 1.537455 3.150168 -1.851386 -6.876930 -8.501735 -0.441400 -0.000000 -42.854000
5.912750 16.695039 0.188165 172.737425 86.017010 172.086637 -10.545437 4.459395 -0.208494 -3.571991 8.805454 16.265055 -1.206266 1.262948 16.208441 0.929670 5.981033 -1.452758 0.612600 0.000000 -68.608100 8.720767 0.769050 1.321883 12.096761 -12.185347 -33.609516 3.248419 1.727138 1.664950 -1.931328 -7.344696 -8.505106 -0.455200 0.000000 -41.824900
6.196595 16.696820 0.242987 172.867741 85.499624 171.901483 -10.526128 4.583796 -0.266421 -2.969134 8.536771 17.370600 -1.083769 1.438673 16.304722 0.876858 5.700240 1.164538 0.842200 0.000000 -72.631400 8.774293 0.851050 1.317775 11.718578 -11.998283 -32.684628 3.131191 1.845971 0.777151 -2.063474 -7.968579 -8.768352 -0.428400 0.000000 -40.021000
6.483235 16.698566 0.297236 173.086926 85.045389 171.797357 -10.511343 4.704254 -0.320781 -2.351295 8.262087 18.418291 -0.955963 1.615501 16.456976 0.840024 5.368228 3.918579 1.028601 -0.000000 -76.566200 8.824985 0.912966 1.317086 11.284522 -11.613905 -31.723613 2.991590 1.899263 0.448032 -2.247027 -8.747996 -9.266816 -0.356100 -0.000000 -37.422200
6.772985 16.699657 0.350923 173.402408 84.655883 171.797882 -10.504135 4.821004 -0.368785 -1.710190 7.993759 19.391386 -0.824721 1.788460 16.657532 0.817946 4.943684 6.809705 1.151200 0.000000 -80.240200 8.869418 0.953444 1.332674 10.814234 -11.000152 -30.749558 2.832714 1.894922 0.626280 -2.483193 -9.695512 -9.956401 -0.237000 0.000000 -34.009800
7.065879 16.699350 0.403935 173.888782 84.325442 171.983227 -10.508007 4.933396 -0.407844 -1.032274 7.734442 20.285663 -0.691068 1.953208 16.901512 0.810796 4.388970 9.833658 1.182800 0.000000 -83.459000 8.903639 0.972129 1.364453 10.348430 -10.176026 -29.789628 2.661662 1.838301 1.263643 -2.763069 -10.785286 -10.774930 -0.071099 -0.000000 -29.834500
7.361939 16.697078 0.456218 174.577329 84.043373 172.389636 -10.525110 5.041796 -0.431180 -0.312778 7.477946 21.089596 -0.556389 2.104916 17.193447 0.820291 3.678255 12.972107 1.093100 -0.000000 -86.016100 8.925552 0.969510 1.406239 9.934326 -9.204141 -28.894439 2.488723 1.731702 2.328229 -3.068097 -11.955924 -11.642890 0.133600 -0.000000 -25.109400
7.660820 16.692299 0.507568 175.525932 83.795751 173.071869 -10.557560 5.145753 -0.432756 0.452412 7.213487 21.797275 -0.422056 2.239180 17.544245 0.849041 2.801545 16.187914 0.854400 0.000000 -87.713700 8.934688 0.946141 1.442171 9.623553 -8.190136 -28.109940 2.326561 1.576195 3.786926 -3.369948 -13.115493 -12.463990 0.356500 0.000000 -20.176900
7.962060 16.684626 0.557837 176.726522 83.566873 174.018103 -10.605300 5.245304 -0.405938 1.254478 6.927943 22.398611 -0.290590 2.352026 17.974333 0.899438 1.776509 19.416160 0.453200 -0.000000 -88.371500 8.934976 0.902702 1.452553 9.453197 -7.267109 -27.485815 2.186654 1.371134 5.614753 -3.633399 -14.153394 -13.124958 0.560000 0.000000 -15.620800
8.264851 16.673779 0.606684 178.168279 83.343252 175.208576 -10.667955 5.339570 -0.348556 2.084010 6.614186 22.887307 -0.164814 2.441367 18.509961 0.971796 0.649327 22.566379 -0.100999 0.000000 -87.853000 8.931621 0.840017 1.416520 9.444924 -6.567735 -27.048951 2.077138 1.118622 7.775662 -3.824516 -14.958433 -13.542961 0.706100 -0.000000 -11.824701
8.568236 16.659650 0.654010 179.749277 83.113727 176.535730 -10.742268 5.428332 -0.261064 2.919195 6.272949 23.250074 -0.048142 2.507545 19.185802 1.063569 -0.495180 25.525005 -0.761900 -0.000000 -86.083700 8.933023 0.759570 1.319145 9.589684 -6.202137 -26.820625 1.999353 0.821828 10.236999 -3.916046 -15.436782 -13.662938 0.763600 0.000000 -9.153099
8.871209 16.642303 0.700107 -178.692088 82.873936 177.842986 -10.823398 5.512341 -0.146657 3.736077 5.923496 23.451207 0.056908 2.553478 20.050904 1.169188 -1.543509 28.163507 -1.447300 -0.000000 -83.081400 8.948038 0.663779 1.162489 9.846464 -6.209477 -26.815842 1.945240 0.487661 12.959015 -3.898696 -15.550995 -13.474750 0.722200 0.000000 -7.773700
